<svg width="155" height="64" viewBox="0 0 155 64" fill="none" xmlns="http://www.w3.org/2000/svg">
<g clip-path="url(#clip0_9_18)">
<path d="M18.5761 19.6353C19.4208 18.7436 20.451 19.1229 21.5525 18.9992C21.0239 19.8814 20.5653 20.6494 20.0825 21.4577L21.1275 22.73C21.27 22.5067 23.2108 19.1484 24.1092 17.6569C25.2201 15.8144 25.8078 13.9449 25.8024 11.2954L26.8259 10.6606V11.4299C26.8259 13.5818 26.8179 15.7243 26.8259 17.8721C26.8419 18.7234 26.6187 19.5622 26.1817 20.293C25.1972 21.9405 24.2423 23.6055 23.2511 25.3069C23.8254 26.0143 24.3849 26.7352 24.9793 27.4251C25.3781 27.885 25.604 28.4695 25.6182 29.078C25.7244 31.8486 25.8993 37.7407 25.9087 37.9963C25.9087 38.2854 25.5805 38.3997 25.3707 38.1375C24.3539 36.927 23.3439 35.7166 22.2424 34.4026C22.2249 34.7698 22.2061 34.985 22.2061 35.2001C22.2061 40.0984 22.2061 44.9966 22.2061 49.8948C22.2061 50.878 22.2209 51.8625 22.2612 52.8456C22.354 55.1683 23.3372 57.0458 25.1327 58.5158C25.3126 58.6878 25.5026 58.849 25.7016 58.9986C25.3586 58.9986 25.1905 58.9906 24.978 58.8843C22.6055 57.6968 20.9809 55.8502 20.1363 53.3325C19.8539 52.5072 19.7081 51.6413 19.7045 50.769C19.7045 49.0906 19.6951 45.2952 19.6951 45.0114C19.4665 45.0881 16.9178 46.1223 15.8083 46.589C14.9068 46.9497 14.1611 47.6163 13.7021 48.4719C13.441 49.002 13.0022 49.4237 12.4621 49.6635C12.6473 48.9631 12.9122 48.2862 13.2516 47.6461C13.7253 46.6987 14.484 45.9236 15.4209 45.4297C16.1647 45.0262 16.9004 44.6039 17.6616 44.2192C18.7456 43.6813 19.2634 42.7075 19.6655 41.6437C19.7032 41.5428 19.7032 34.8733 19.6131 31.6052C19.2728 32.1606 18.9325 32.7161 18.56 33.3267L16.2279 31.2219L17.8418 28.4163L16.6771 27.0364C16.5157 27.2705 14.7122 30.1298 13.9644 31.4007C13.3094 32.513 12.3505 33.0146 11.0795 33.0146C10.4071 33.0146 9.73459 33.0146 9.03657 33.0146C9.04891 32.8442 9.12336 32.6841 9.24582 32.5649C9.36827 32.4457 9.53022 32.3755 9.70096 32.3677C10.594 32.2521 11.1911 31.745 11.6457 30.9932C12.7997 29.0821 13.9778 27.1857 15.1775 25.2315C14.7054 24.6573 13.2247 22.8806 12.9759 22.5646C12.4392 21.8936 12.1614 21.0521 12.1931 20.1934C12.1932 20.1268 12.2036 20.0605 12.224 19.9971C12.2362 19.9662 12.2671 19.9056 12.3263 19.907C12.3578 19.9118 12.3874 19.9257 12.4112 19.9469C12.4351 19.9682 12.4523 19.9959 12.4608 20.0267C12.6477 20.9466 13.2677 21.6043 13.838 22.2888C14.4082 22.9734 15.0175 23.6929 15.6496 24.4528L18.0704 20.523L12.4244 13.6558L12.3276 13.0653L6.79457 6.32859C6.33595 5.76775 5.98762 5.1585 6.00645 4.3623L18.5761 19.6353ZM23.1731 33.1666C23.5201 33.0604 23.4905 32.665 23.4797 32.4027C23.4434 31.4895 23.426 30.5763 23.352 29.6658C23.2767 28.7243 22.8275 27.9698 22.0877 27.3189C21.5162 28.2966 20.9809 29.2166 20.4214 30.1728C21.2068 31.1143 21.9842 32.0557 22.779 32.9877C22.8745 33.1007 23.0467 33.2056 23.1731 33.1666V33.1666ZM18.3031 27.6363C19.0993 26.2671 19.8471 24.9774 20.6245 23.6378C20.2667 23.2101 19.9224 22.7959 19.5324 22.3278C18.6999 23.6835 17.9185 24.9531 17.1357 26.2281L18.3031 27.6363Z" fill="white"/>
<path d="M27.9207 1.04707L28.8272 1V46.7773C28.8272 46.7773 28.5299 46.1909 28.4129 45.8923C28.0095 44.8796 27.914 43.8346 27.9153 42.7479C27.9288 29.191 27.9207 1.45728 27.9207 1.04707Z" fill="white"/>
<path d="M18.2735 33.8633C17.5365 35.1235 16.8466 36.3218 16.1364 37.5081C15.6415 38.3338 14.9072 38.7911 13.9321 38.8005C12.5724 38.8126 11.2113 38.8005 9.74131 38.8005L10.1824 38.0581L10.9961 37.9062C11.4928 37.8205 11.963 37.621 12.3697 37.3233C12.7764 37.0255 13.1086 36.6377 13.3403 36.19C14.0572 34.9043 15.7854 31.9925 15.9334 31.7518L18.2735 33.8633Z" fill="white"/>
<path d="M10.1865 7.92099C9.70634 7.36822 6.95596 4.10005 6.05486 3.01738V1.86209C6.23912 2.07593 8.43942 4.66761 9.43735 5.86863C10.0681 6.62851 10.1098 6.98492 10.1717 7.93444L10.1865 7.92099Z" fill="white"/>
<path d="M10.1717 7.93445L10.2107 7.93041L10.1865 7.92099L10.1717 7.93445Z" fill="white"/>
<path d="M47.8068 7.91696L47.7839 7.92773L47.8203 7.93042L47.8068 7.91696Z" fill="white"/>
<path d="M51.9909 4.3623C52.011 5.16926 51.6627 5.77179 51.2041 6.33262L45.6711 13.0653L45.5742 13.6558L39.9336 20.523L42.3545 24.4528C42.992 23.6929 43.5783 22.9895 44.1661 22.2888C44.7538 21.5881 45.355 20.9439 45.5433 20.0267C45.5517 19.9959 45.569 19.9682 45.5928 19.9469C45.6167 19.9257 45.6462 19.9118 45.6778 19.907C45.737 19.907 45.7679 19.9662 45.78 19.9971C45.7997 20.0607 45.8102 20.1268 45.8109 20.1934C45.8425 21.0498 45.5662 21.889 45.0322 22.5592C44.7834 22.8752 43.3026 24.6519 42.8306 25.2262C44.0208 27.1803 45.1976 29.0767 46.3543 30.9919C46.8089 31.7437 47.406 32.2507 48.299 32.3664C48.4697 32.3745 48.6315 32.4447 48.7539 32.5639C48.8763 32.6831 48.9508 32.8429 48.9634 33.0133C48.26 33.0133 47.5903 33.0133 46.9205 33.0133C45.6549 33.0214 44.6906 32.517 44.0356 31.3994C43.2878 30.1298 41.4803 27.2691 41.3229 27.0351C40.9194 27.5179 40.5442 27.9564 40.1582 28.415C40.6962 29.3564 41.2247 30.275 41.7721 31.2205L39.44 33.332C39.0675 32.7214 38.7272 32.166 38.3869 31.6105C38.2968 34.8787 38.2968 41.5482 38.3345 41.6491C38.7379 42.7129 39.2544 43.6813 40.3384 44.2246C41.097 44.6039 41.8353 45.0222 42.5791 45.435C43.5163 45.9291 44.2753 46.7042 44.7498 47.6515C45.0892 48.2916 45.3541 48.9684 45.5392 49.6689C44.9959 49.4312 44.5535 49.0098 44.2898 48.4786C43.8316 47.6222 43.0864 46.9546 42.185 46.593C41.0754 46.1263 38.5268 45.0921 38.2982 45.0154C38.2982 45.2992 38.2874 49.0946 38.2874 50.7731C38.285 51.6453 38.1396 52.5113 37.857 53.3365C37.0138 55.8542 35.3891 57.7008 33.0153 58.8884C32.8028 58.9946 32.6347 59.0013 32.2917 59.0027C32.4907 58.8531 32.6807 58.6918 32.8606 58.5198C34.6534 57.0471 35.6392 55.1696 35.7293 52.8469C35.7697 51.8638 35.7831 50.8793 35.7831 49.8962C35.7885 44.9979 35.7885 40.0997 35.7831 35.2015C35.7831 34.9863 35.7643 34.7711 35.7468 34.4039C34.6453 35.7206 33.6353 36.9257 32.6185 38.1388C32.4101 38.4078 32.0806 38.2868 32.0806 37.9976C32.09 37.7421 32.2648 31.8499 32.3711 29.0794C32.3845 28.4707 32.6105 27.886 33.0099 27.4265C33.6044 26.7365 34.1639 26.0156 34.7381 25.3082C33.7456 23.6069 32.7907 21.9459 31.8075 20.2943C31.3705 19.5635 31.1473 18.7248 31.1633 17.8734C31.1754 15.7216 31.1633 13.5791 31.1633 11.4312V10.6606L32.1868 11.2954C32.1868 13.9449 32.7678 15.8144 33.8801 17.6569C34.7785 19.1484 36.7192 22.5067 36.8618 22.73L37.9068 21.4577C37.424 20.6507 36.9653 19.8814 36.4368 18.9991C37.5383 19.1229 38.5685 18.7436 39.4131 19.6353L51.9909 4.3623ZM35.2196 32.9877C36.0145 32.0597 36.7918 31.1156 37.5759 30.1728C37.0178 29.2166 36.4825 28.2966 35.9109 27.3189C35.1712 27.9698 34.722 28.727 34.6453 29.6658C34.5727 30.5763 34.5552 31.4895 34.5189 32.4027C34.5082 32.665 34.4786 33.0604 34.8256 33.1666C34.9506 33.2056 35.1228 33.1007 35.2196 32.9877ZM40.8683 26.2349C40.0815 24.9531 39.3042 23.6795 38.4717 22.3346L37.3796 23.6445L39.6996 27.643L40.8683 26.2349Z" fill="white"/>
<path d="M30.0806 1.04707L29.1715 1V46.7773C29.1715 46.7773 29.4687 46.1909 29.5857 45.8923C29.9892 44.8796 30.0847 43.8346 30.0833 42.7479C30.0685 29.191 30.0806 1.45728 30.0806 1.04707Z" fill="white"/>
<path d="M39.7251 33.8633C40.4621 35.1235 41.1521 36.3218 41.8622 37.5081C42.3558 38.3338 43.0915 38.7911 44.0652 38.8005C45.4263 38.8126 46.7873 38.8005 48.2574 38.8005L47.8162 38.0581L47.0025 37.9062C46.5058 37.8205 46.0357 37.621 45.629 37.3233C45.2223 37.0255 44.89 36.6377 44.6583 36.19C43.9415 34.9043 42.2132 31.9925 42.0653 31.7518L39.7251 33.8633Z" fill="white"/>
<path d="M47.8122 7.92099C48.2923 7.36822 51.04 4.10005 51.9438 3.012V1.86209C51.7595 2.07593 49.5592 4.66761 48.5613 5.86863C47.9305 6.62851 47.8821 6.98492 47.827 7.93444L47.8122 7.92099Z" fill="white"/>
<path d="M47.827 7.93445L47.788 7.93041L47.8122 7.92099L47.827 7.93445Z" fill="white"/>
</g>
<path d="M59.29 59V42.41C59.29 41.97 59.21 41.66 59.05 41.48C58.89 41.28 58.6 41.18 58.18 41.18C58.16 40.66 58.3 40.25 58.6 39.95C58.9 39.65 59.38 39.5 60.04 39.5C60.72 39.5 61.19 39.83 61.45 40.49C62.23 39.83 63.03 39.5 63.85 39.5C65.83 39.5 66.82 40.48 66.82 42.44V47.69C66.82 48.61 66.53 49.31 65.95 49.79C66.63 50.25 66.97 51.01 66.97 52.07V55.82C66.97 56.82 66.62 57.6 65.92 58.16C65.24 58.72 64.31 59 63.13 59H59.29ZM63.28 41.48C62.74 41.48 62.2 41.75 61.66 42.29V48.89H63.13C63.53 48.89 63.85 48.78 64.09 48.56C64.33 48.34 64.45 48.05 64.45 47.69V42.62C64.45 41.86 64.06 41.48 63.28 41.48ZM61.66 50.87V57.02H63.19C63.61 57.02 63.95 56.92 64.21 56.72C64.47 56.5 64.6 56.2 64.6 55.82V52.07C64.6 51.69 64.47 51.4 64.21 51.2C63.95 50.98 63.61 50.87 63.19 50.87H61.66ZM73.453 47.21C73.453 46.81 73.333 46.5 73.093 46.28C72.853 46.04 72.553 45.92 72.193 45.92C71.453 45.92 71.083 46.23 71.083 46.85V51.14L72.523 50.06C73.143 49.6 73.453 48.65 73.453 47.21ZM68.833 56.33V46.94C68.833 44.98 69.983 44 72.283 44C74.603 44 75.763 45.1 75.763 47.3C75.763 48.18 75.603 48.99 75.283 49.73C74.963 50.47 74.523 51.03 73.963 51.41L71.083 53.39V56.12C71.083 56.96 71.473 57.38 72.253 57.38C73.053 57.38 73.453 56.91 73.453 55.97V55.28L73.363 53.87C73.623 53.81 73.883 53.78 74.143 53.78C74.423 53.78 74.683 53.82 74.923 53.9C75.403 54.02 75.643 54.25 75.643 54.59V56.75C75.643 57.55 75.323 58.18 74.683 58.64C74.063 59.08 73.233 59.3 72.193 59.3C69.953 59.3 68.833 58.31 68.833 56.33ZM82.2177 46.76C82.2177 45.78 82.1477 44.96 82.0077 44.3C82.6077 44.22 83.2577 44.18 83.9577 44.18C84.2977 44.18 84.4677 44.33 84.4677 44.63V61.13C84.4677 62.03 84.1477 62.71 83.5077 63.17C82.8877 63.63 82.0477 63.86 80.9877 63.86C79.9277 63.86 79.1077 63.66 78.5277 63.26C77.9477 62.86 77.6577 62.31 77.6577 61.61V60.5C77.6577 60.16 77.8977 59.92 78.3777 59.78C78.6177 59.72 78.8677 59.69 79.1277 59.69C79.4077 59.69 79.6777 59.72 79.9377 59.78C79.8777 60.26 79.8477 60.68 79.8477 61.04V61.19C79.8477 61.69 80.2377 61.94 81.0177 61.94C81.8177 61.94 82.2177 61.59 82.2177 60.89V57.92C81.7177 58.42 81.0677 58.67 80.2677 58.67C79.4877 58.67 78.8577 58.42 78.3777 57.92C77.8977 57.4 77.6577 56.65 77.6577 55.67V46.79C77.6577 46.37 77.5777 46.07 77.4177 45.89C77.2777 45.71 76.9977 45.62 76.5777 45.62C76.5577 45.12 76.6977 44.73 76.9977 44.45C77.3177 44.15 77.7577 44 78.3177 44C78.8777 44 79.2777 44.16 79.5177 44.48C79.7777 44.8 79.9077 45.33 79.9077 46.07V55.64C79.9077 56.3 80.1677 56.63 80.6877 56.63C80.9677 56.63 81.2577 56.54 81.5577 56.36C81.8577 56.16 82.0777 55.94 82.2177 55.7V46.76ZM86.4991 56.24V47.18C86.4991 46.18 86.8091 45.4 87.4291 44.84C88.0491 44.28 88.8891 44 89.9491 44C91.0091 44 91.8291 44.26 92.4091 44.78C93.0091 45.3 93.3091 46.06 93.3091 47.06V56.12C93.3091 57.12 92.9891 57.9 92.3491 58.46C91.7291 59.02 90.8891 59.3 89.8291 59.3C88.7691 59.3 87.9491 59.04 87.3691 58.52C86.7891 58 86.4991 57.24 86.4991 56.24ZM88.7491 47.06V56.24C88.7491 56.58 88.8591 56.87 89.0791 57.11C89.2991 57.33 89.5691 57.44 89.8891 57.44C90.2291 57.44 90.5091 57.33 90.7291 57.11C90.9491 56.87 91.0591 56.58 91.0591 56.24V47.06C91.0591 46.72 90.9491 46.44 90.7291 46.22C90.5091 45.98 90.2291 45.86 89.8891 45.86C89.5691 45.86 89.2991 45.98 89.0791 46.22C88.8591 46.44 88.7491 46.72 88.7491 47.06ZM97.8395 56.54C97.8395 57.52 97.9095 58.34 98.0495 59C97.4495 59.08 96.7995 59.12 96.0995 59.12C95.7595 59.12 95.5895 58.97 95.5895 58.67V46.79C95.5895 46.37 95.5095 46.07 95.3495 45.89C95.2095 45.71 94.9295 45.62 94.5095 45.62C94.4895 45.1 94.6195 44.7 94.8995 44.42C95.1995 44.14 95.6695 44 96.3095 44C96.9495 44 97.4095 44.31 97.6895 44.93C98.3495 44.31 99.0595 44 99.8195 44C100.6 44 101.22 44.25 101.68 44.75C102.16 45.25 102.4 45.96 102.4 46.88V56.51C102.4 56.93 102.47 57.23 102.61 57.41C102.77 57.59 103.06 57.68 103.48 57.68C103.5 58.2 103.36 58.6 103.06 58.88C102.78 59.16 102.36 59.3 101.8 59.3C101.24 59.3 100.82 59.13 100.54 58.79C100.28 58.45 100.15 57.89 100.15 57.11V47.06C100.15 46.4 99.8095 46.07 99.1295 46.07C98.5695 46.07 98.1395 46.38 97.8395 47V56.54ZM109.135 46.22H107.965C107.625 46.22 107.345 46.33 107.125 46.55C106.925 46.75 106.825 47.02 106.825 47.36V56.21C106.825 56.91 107.115 57.26 107.695 57.26C107.995 57.26 108.275 57.15 108.535 56.93C108.815 56.69 109.015 56.44 109.135 56.18V46.22ZM109.135 40.4C109.135 39.8 109.045 39.19 108.865 38.57C109.465 38.25 110.105 38.09 110.785 38.09C111.185 38.09 111.385 38.24 111.385 38.54V56.51C111.385 56.93 111.455 57.23 111.595 57.41C111.755 57.59 112.045 57.68 112.465 57.68C112.485 58.2 112.345 58.6 112.045 58.88C111.765 59.16 111.355 59.3 110.815 59.3C110.015 59.3 109.505 58.99 109.285 58.37C108.665 58.99 107.965 59.3 107.185 59.3C106.405 59.3 105.775 59.04 105.295 58.52C104.815 57.98 104.575 57.22 104.575 56.24V47.48C104.575 46.48 104.885 45.7 105.505 45.14C106.125 44.58 106.965 44.3 108.025 44.3H109.135V40.4ZM121.851 57.02C122.571 57.02 123.111 56.97 123.471 56.87C123.631 57.43 123.711 57.98 123.711 58.52C123.711 58.84 123.571 59 123.291 59H117.381V42.32L117.261 39.5C117.941 39.4 118.611 39.35 119.271 39.35C119.591 39.35 119.751 39.52 119.751 39.86V57.02H121.851ZM126.26 41.57C125.4 41.57 124.97 41 124.97 39.86C124.97 38.72 125.4 38.15 126.26 38.15C127.12 38.15 127.55 38.72 127.55 39.86C127.55 41 127.12 41.57 126.26 41.57ZM124.4 44.3H127.4V56.51C127.4 56.93 127.47 57.23 127.61 57.41C127.77 57.59 128.06 57.68 128.48 57.68C128.5 58.2 128.36 58.6 128.06 58.88C127.78 59.16 127.36 59.3 126.8 59.3C126.24 59.3 125.82 59.13 125.54 58.79C125.28 58.45 125.15 57.89 125.15 57.11V46.1L124.22 46.25C124.08 45.73 124.01 45.28 124.01 44.9C124.01 44.5 124.14 44.3 124.4 44.3ZM133.223 56.99H133.823C134.823 56.99 135.583 57.28 136.103 57.86C136.623 58.44 136.883 59.26 136.883 60.32C136.883 62.48 135.903 63.56 133.943 63.56H132.443C131.443 63.56 130.683 63.26 130.163 62.66C129.643 62.08 129.383 61.26 129.383 60.2C129.383 58.74 129.913 57.77 130.973 57.29V55.19C130.033 54.69 129.563 53.8 129.563 52.52V47.48C129.563 46.48 129.873 45.7 130.493 45.14C131.113 44.58 131.953 44.3 133.013 44.3H134.543L136.373 44.18V52.4C136.373 53.36 136.083 54.12 135.503 54.68C134.943 55.22 134.183 55.52 133.223 55.58V56.99ZM131.813 47.36V52.52C131.813 52.86 131.923 53.15 132.143 53.39C132.363 53.61 132.633 53.72 132.953 53.72C133.293 53.72 133.573 53.61 133.793 53.39C134.013 53.15 134.123 52.86 134.123 52.52V46.22H132.953C132.613 46.22 132.333 46.33 132.113 46.55C131.913 46.75 131.813 47.02 131.813 47.36ZM133.913 58.88H132.353C131.813 58.88 131.543 59.34 131.543 60.26C131.543 61.2 131.813 61.67 132.353 61.67H133.913C134.453 61.67 134.723 61.2 134.723 60.26C134.723 59.34 134.453 58.88 133.913 58.88ZM138.416 40.4C138.416 39.8 138.326 39.19 138.146 38.57C138.746 38.25 139.386 38.09 140.066 38.09C140.466 38.09 140.666 38.24 140.666 38.54V44.78C141.286 44.26 141.966 44 142.706 44C143.446 44 144.046 44.25 144.506 44.75C144.986 45.25 145.226 45.96 145.226 46.88V56.51C145.226 56.93 145.296 57.23 145.436 57.41C145.596 57.59 145.886 57.68 146.306 57.68C146.326 58.2 146.186 58.6 145.886 58.88C145.606 59.16 145.186 59.3 144.626 59.3C144.066 59.3 143.646 59.13 143.366 58.79C143.106 58.45 142.976 57.89 142.976 57.11V47.06C142.976 46.4 142.636 46.07 141.956 46.07C141.396 46.07 140.966 46.38 140.666 47V56.54C140.666 57.5 140.736 58.3 140.876 58.94C140.276 59.06 139.626 59.12 138.926 59.12C138.586 59.12 138.416 58.97 138.416 58.67V40.4ZM154.517 56.69C154.517 57.53 154.197 58.18 153.557 58.64C152.917 59.08 152.097 59.3 151.097 59.3C150.117 59.3 149.327 59.05 148.727 58.55C148.147 58.03 147.857 57.34 147.857 56.48V46.1L146.927 46.25C146.787 45.73 146.717 45.28 146.717 44.9C146.717 44.5 146.847 44.3 147.107 44.3H147.917L148.337 41.48C148.417 41.04 148.787 40.82 149.447 40.82C149.647 40.82 149.867 40.84 150.107 40.88V44.3H152.717L154.277 44.15C154.377 44.67 154.427 45.13 154.427 45.53C154.427 45.91 154.297 46.1 154.037 46.1H150.107V56.12C150.107 56.54 150.207 56.87 150.407 57.11C150.627 57.33 150.897 57.44 151.217 57.44C151.957 57.44 152.327 56.95 152.327 55.97V53.78L152.237 52.37C152.497 52.31 152.757 52.28 153.017 52.28C153.297 52.28 153.557 52.32 153.797 52.4C154.277 52.52 154.517 52.75 154.517 53.09V56.69Z" fill="white"/>
<path d="M63.68 32.24C63.68 32.8 63.44 33.2667 62.96 33.64C62.4933 34.0133 61.88 34.2 61.12 34.2C60.36 34.2 59.76 34.0267 59.32 33.68C58.88 33.3333 58.66 32.8267 58.66 32.16V22.92C58.66 22.2533 58.8867 21.7333 59.34 21.36C59.7933 20.9867 60.4 20.8 61.16 20.8C61.9333 20.8 62.5467 20.9733 63 21.32C63.4533 21.6533 63.68 22.0933 63.68 22.64V25.12C63.68 25.36 63.5067 25.5267 63.16 25.62C62.9733 25.6733 62.7867 25.7 62.6 25.7C62.4133 25.7 62.2267 25.68 62.04 25.64C62.08 25.32 62.1 24.98 62.1 24.62V22.92C62.1 22.6667 62.0133 22.4733 61.84 22.34C61.6667 22.1933 61.44 22.12 61.16 22.12C60.88 22.12 60.6533 22.1933 60.48 22.34C60.32 22.4733 60.24 22.6667 60.24 22.92V32.08C60.24 32.32 60.32 32.5133 60.48 32.66C60.6533 32.8067 60.88 32.88 61.16 32.88C61.44 32.88 61.6667 32.8133 61.84 32.68C62.0133 32.5333 62.1 32.3333 62.1 32.08V31.64L62.04 30.62C62.2267 30.58 62.4133 30.56 62.6 30.56C62.7867 30.56 62.9733 30.5867 63.16 30.64C63.5067 30.7333 63.68 30.9 63.68 31.14V32.24ZM65.8309 22.38C65.2576 22.38 64.9709 22 64.9709 21.24C64.9709 20.48 65.2576 20.1 65.8309 20.1C66.4043 20.1 66.6909 20.48 66.6909 21.24C66.6909 22 66.4043 22.38 65.8309 22.38ZM64.5909 24.2H66.5909V32.34C66.5909 32.62 66.6376 32.82 66.7309 32.94C66.8376 33.06 67.0309 33.12 67.3109 33.12C67.3243 33.4667 67.2309 33.7333 67.0309 33.92C66.8443 34.1067 66.5643 34.2 66.1909 34.2C65.8176 34.2 65.5376 34.0867 65.3509 33.86C65.1776 33.6333 65.0909 33.26 65.0909 32.74V25.4L64.4709 25.5C64.3776 25.1533 64.3309 24.8533 64.3309 24.6C64.3309 24.3333 64.4176 24.2 64.5909 24.2ZM69.8527 32.72H70.6327C70.8593 32.72 71.0393 32.6533 71.1727 32.52C71.3193 32.3733 71.3927 32.1867 71.3927 31.96V26.06C71.3927 25.5933 71.1993 25.36 70.8127 25.36C70.6127 25.36 70.4193 25.44 70.2327 25.6C70.0593 25.7467 69.9327 25.9067 69.8527 26.08V32.72ZM69.8527 34V35.6L69.9927 36.92C69.6327 37.0667 69.2193 37.14 68.7527 37.14C68.486 37.14 68.3527 37.04 68.3527 36.84V25.86C68.3527 25.58 68.2993 25.38 68.1927 25.26C68.0993 25.14 67.9127 25.08 67.6327 25.08C67.6193 24.7333 67.706 24.4667 67.8927 24.28C68.0927 24.0933 68.406 24 68.8327 24C69.2727 24 69.5793 24.2067 69.7527 24.62C70.166 24.2067 70.6327 24 71.1527 24C71.6727 24 72.0927 24.18 72.4127 24.54C72.7327 24.8867 72.8927 25.3867 72.8927 26.04V31.88C72.8927 32.5467 72.686 33.0667 72.2727 33.44C71.8593 33.8133 71.2993 34 70.5927 34H69.8527ZM74.2473 21.6C74.2473 21.2 74.1873 20.7933 74.0673 20.38C74.4673 20.1667 74.894 20.06 75.3473 20.06C75.614 20.06 75.7473 20.16 75.7473 20.36V24.52C76.1607 24.1733 76.614 24 77.1073 24C77.6007 24 78.0007 24.1667 78.3073 24.5C78.6273 24.8333 78.7873 25.3067 78.7873 25.92V32.34C78.7873 32.62 78.834 32.82 78.9273 32.94C79.034 33.06 79.2273 33.12 79.5073 33.12C79.5207 33.4667 79.4273 33.7333 79.2273 33.92C79.0407 34.1067 78.7607 34.2 78.3873 34.2C78.014 34.2 77.734 34.0867 77.5473 33.86C77.374 33.6333 77.2873 33.26 77.2873 32.74V26.04C77.2873 25.6 77.0607 25.38 76.6073 25.38C76.234 25.38 75.9473 25.5867 75.7473 26V32.36C75.7473 33 75.794 33.5333 75.8873 33.96C75.4873 34.04 75.054 34.08 74.5873 34.08C74.3607 34.08 74.2473 33.98 74.2473 33.78V21.6ZM83.3216 26.14C83.3216 25.8733 83.2416 25.6667 83.0816 25.52C82.9216 25.36 82.7216 25.28 82.4816 25.28C81.9882 25.28 81.7416 25.4867 81.7416 25.9V28.76L82.7016 28.04C83.1149 27.7333 83.3216 27.1 83.3216 26.14ZM80.2416 32.22V25.96C80.2416 24.6533 81.0082 24 82.5416 24C84.0882 24 84.8616 24.7333 84.8616 26.2C84.8616 26.7867 84.7549 27.3267 84.5416 27.82C84.3282 28.3133 84.0349 28.6867 83.6616 28.94L81.7416 30.26V32.08C81.7416 32.64 82.0016 32.92 82.5216 32.92C83.0549 32.92 83.3216 32.6067 83.3216 31.98V31.52L83.2616 30.58C83.4349 30.54 83.6082 30.52 83.7816 30.52C83.9682 30.52 84.1416 30.5467 84.3016 30.6C84.6216 30.68 84.7816 30.8333 84.7816 31.06V32.5C84.7816 33.0333 84.5682 33.4533 84.1416 33.76C83.7282 34.0533 83.1749 34.2 82.4816 34.2C80.9882 34.2 80.2416 33.54 80.2416 32.22ZM87.6847 32.36C87.6847 33 87.7314 33.5333 87.8247 33.96C87.4247 34.04 86.9914 34.08 86.5247 34.08C86.298 34.08 86.1847 33.98 86.1847 33.78V25.86C86.1847 25.58 86.1314 25.38 86.0247 25.26C85.9314 25.14 85.7447 25.08 85.4647 25.08C85.4514 24.7333 85.538 24.4667 85.7247 24.28C85.9247 24.0933 86.2047 24 86.5647 24C87.098 24 87.4314 24.2667 87.5647 24.8C87.898 24.2667 88.3714 24 88.9847 24C90.078 24 90.6247 24.5267 90.6247 25.58V27.58C90.6247 27.8067 90.4647 27.96 90.1447 28.04C89.9847 28.0933 89.8114 28.12 89.6247 28.12C89.4514 28.12 89.278 28.1 89.1047 28.06C89.1447 27.7667 89.1647 27.4533 89.1647 27.12V26.1C89.1647 25.66 88.9647 25.44 88.5647 25.44C88.378 25.44 88.2047 25.5267 88.0447 25.7C87.8847 25.8733 87.7647 26.0667 87.6847 26.28V32.36ZM93.9525 32.16V26.12C93.9525 25.4533 94.1592 24.9333 94.5725 24.56C94.9858 24.1867 95.5458 24 96.2525 24C96.9592 24 97.5058 24.1733 97.8925 24.52C98.2925 24.8667 98.4925 25.3733 98.4925 26.04V32.08C98.4925 32.7467 98.2792 33.2667 97.8525 33.64C97.4392 34.0133 96.8792 34.2 96.1725 34.2C95.4658 34.2 94.9192 34.0267 94.5325 33.68C94.1458 33.3333 93.9525 32.8267 93.9525 32.16ZM95.4525 26.04V32.16C95.4525 32.3867 95.5258 32.58 95.6725 32.74C95.8192 32.8867 95.9992 32.96 96.2125 32.96C96.4392 32.96 96.6258 32.8867 96.7725 32.74C96.9192 32.58 96.9925 32.3867 96.9925 32.16V26.04C96.9925 25.8133 96.9192 25.6267 96.7725 25.48C96.6258 25.32 96.4392 25.24 96.2125 25.24C95.9992 25.24 95.8192 25.32 95.6725 25.48C95.5258 25.6267 95.4525 25.8133 95.4525 26.04ZM101.613 32.36C101.613 32.8667 101.659 33.4 101.753 33.96C101.353 34.04 100.919 34.08 100.453 34.08C100.226 34.08 100.113 33.98 100.113 33.78V25.8L99.4928 25.9C99.3995 25.5533 99.3528 25.2533 99.3528 25C99.3528 24.7333 99.4395 24.6 99.6128 24.6H100.113V21.98C100.113 21.38 100.293 20.9 100.653 20.54C101.013 20.18 101.539 20 102.233 20C102.926 20 103.473 20.1533 103.873 20.46C104.286 20.7533 104.493 21.1667 104.493 21.7V22.72C104.493 22.9467 104.333 23.1067 104.013 23.2C103.853 23.24 103.679 23.26 103.493 23.26C103.319 23.26 103.146 23.24 102.973 23.2C103.013 22.9067 103.033 22.5933 103.033 22.26V22.14C103.033 21.8467 102.979 21.6333 102.873 21.5C102.766 21.3533 102.573 21.28 102.293 21.28C102.026 21.28 101.846 21.3533 101.753 21.5C101.659 21.6467 101.613 21.8733 101.613 22.18V24.6H102.613L103.653 24.5C103.719 24.8467 103.753 25.1533 103.753 25.42C103.753 25.6733 103.666 25.8 103.493 25.8H101.613V32.36Z" fill="white"/>
<path d="M58.62 8.62V5.92C58.62 5.25333 58.8467 4.73333 59.3 4.36C59.7533 3.98667 60.36 3.8 61.12 3.8C61.8933 3.8 62.5067 3.97333 62.96 4.32C63.4133 4.65333 63.64 5.09333 63.64 5.64V8.12C63.64 8.36 63.4667 8.52667 63.12 8.62C62.9333 8.67333 62.7467 8.7 62.56 8.7C62.3733 8.7 62.1867 8.68 62 8.64C62.04 8.32 62.06 7.98 62.06 7.62V5.92C62.06 5.66667 61.9733 5.47333 61.8 5.34C61.6267 5.19333 61.4 5.12 61.12 5.12C60.84 5.12 60.6133 5.19333 60.44 5.34C60.28 5.47333 60.2 5.66667 60.2 5.92V8.26C60.2 8.72667 60.3533 9.05333 60.66 9.24L62.78 10.6C63.38 10.9733 63.68 11.5467 63.68 12.32V15.08C63.68 15.7467 63.4467 16.2667 62.98 16.64C62.5133 17.0133 61.8933 17.2 61.12 17.2C60.36 17.2 59.7467 17.0333 59.28 16.7C58.8133 16.3533 58.58 15.9067 58.58 15.36V12.88C58.58 12.64 58.7533 12.4733 59.1 12.38C59.2867 12.3267 59.4733 12.3 59.66 12.3C59.8467 12.3 60.0333 12.32 60.22 12.36C60.18 12.68 60.16 13.02 60.16 13.38V15.08C60.16 15.32 60.2533 15.5133 60.44 15.66C60.6267 15.8067 60.86 15.88 61.14 15.88C61.42 15.88 61.6467 15.8067 61.82 15.66C62.0067 15.5133 62.1 15.32 62.1 15.08V12.82C62.1 12.3 61.92 11.9267 61.56 11.7L59.44 10.32C58.8933 9.97333 58.62 9.40667 58.62 8.62ZM69.6691 15.46C69.6691 16.02 69.4557 16.4533 69.0291 16.76C68.6024 17.0533 68.0557 17.2 67.3891 17.2C66.7357 17.2 66.2091 17.0333 65.8091 16.7C65.4224 16.3533 65.2291 15.8933 65.2291 15.32V8.4L64.6091 8.5C64.5157 8.15333 64.4691 7.85333 64.4691 7.6C64.4691 7.33333 64.5557 7.2 64.7291 7.2H65.2691L65.5491 5.32C65.6024 5.02667 65.8491 4.88 66.2891 4.88C66.4224 4.88 66.5691 4.89333 66.7291 4.92V7.2H68.4691L69.5091 7.1C69.5757 7.44667 69.6091 7.75333 69.6091 8.02C69.6091 8.27333 69.5224 8.4 69.3491 8.4H66.7291V15.08C66.7291 15.36 66.7957 15.58 66.9291 15.74C67.0757 15.8867 67.2557 15.96 67.4691 15.96C67.9624 15.96 68.2091 15.6333 68.2091 14.98V13.52L68.1491 12.58C68.3224 12.54 68.4957 12.52 68.6691 12.52C68.8557 12.52 69.0291 12.5467 69.1891 12.6C69.5091 12.68 69.6691 12.8333 69.6691 13.06V15.46ZM73.6731 9.14C73.6731 8.87333 73.5931 8.66667 73.4331 8.52C73.2731 8.36 73.0731 8.28 72.8331 8.28C72.3398 8.28 72.0931 8.48667 72.0931 8.9V11.76L73.0531 11.04C73.4665 10.7333 73.6731 10.1 73.6731 9.14ZM70.5931 15.22V8.96C70.5931 7.65333 71.3598 7 72.8931 7C74.4398 7 75.2131 7.73333 75.2131 9.2C75.2131 9.78667 75.1065 10.3267 74.8931 10.82C74.6798 11.3133 74.3865 11.6867 74.0131 11.94L72.0931 13.26V15.08C72.0931 15.64 72.3531 15.92 72.8731 15.92C73.4065 15.92 73.6731 15.6067 73.6731 14.98V14.52L73.6131 13.58C73.7865 13.54 73.9598 13.52 74.1331 13.52C74.3198 13.52 74.4931 13.5467 74.6531 13.6C74.9731 13.68 75.1331 13.8333 75.1331 14.06V15.5C75.1331 16.0333 74.9198 16.4533 74.4931 16.76C74.0798 17.0533 73.5265 17.2 72.8331 17.2C71.3398 17.2 70.5931 16.54 70.5931 15.22ZM78.6563 15.66H79.0563C79.7229 15.66 80.2296 15.8533 80.5763 16.24C80.9229 16.6267 81.0963 17.1733 81.0963 17.88C81.0963 19.32 80.4429 20.04 79.1363 20.04H78.1363C77.4696 20.04 76.9629 19.84 76.6163 19.44C76.2696 19.0533 76.0963 18.5067 76.0963 17.8C76.0963 16.8267 76.4496 16.18 77.1563 15.86V14.46C76.5296 14.1267 76.2163 13.5333 76.2163 12.68V9.32C76.2163 8.65333 76.4229 8.13333 76.8363 7.76C77.2496 7.38667 77.8096 7.2 78.5163 7.2H79.5363L80.7563 7.12V12.6C80.7563 13.24 80.5629 13.7467 80.1763 14.12C79.8029 14.48 79.2963 14.68 78.6563 14.72V15.66ZM77.7163 9.24V12.68C77.7163 12.9067 77.7896 13.1 77.9363 13.26C78.0829 13.4067 78.2629 13.48 78.4763 13.48C78.7029 13.48 78.8896 13.4067 79.0363 13.26C79.1829 13.1 79.2563 12.9067 79.2563 12.68V8.48H78.4763C78.2496 8.48 78.0629 8.55333 77.9163 8.7C77.7829 8.83333 77.7163 9.01333 77.7163 9.24ZM79.1163 16.92H78.0763C77.7163 16.92 77.5363 17.2267 77.5363 17.84C77.5363 18.4667 77.7163 18.78 78.0763 18.78H79.1163C79.4763 18.78 79.6563 18.4667 79.6563 17.84C79.6563 17.2267 79.4763 16.92 79.1163 16.92ZM84.0584 13.34C83.6184 13.6333 83.3984 14.1267 83.3984 14.82C83.3984 15.5 83.6051 15.84 84.0184 15.84C84.4451 15.84 84.7784 15.6 85.0184 15.12V12.7L84.0584 13.34ZM84.2784 7C85.7718 7 86.5184 7.66 86.5184 8.98V15.34C86.5184 15.62 86.5651 15.82 86.6584 15.94C86.7651 16.06 86.9584 16.12 87.2384 16.12C87.2518 16.4667 87.1584 16.7333 86.9584 16.92C86.7718 17.1067 86.4984 17.2 86.1384 17.2C85.5784 17.2 85.2384 16.9933 85.1184 16.58C84.7051 16.9933 84.2184 17.2 83.6584 17.2C83.0984 17.2 82.6518 16.9867 82.3184 16.56C81.9851 16.1333 81.8184 15.56 81.8184 14.84C81.8184 13.7467 82.2784 12.92 83.1984 12.36L85.0184 11.28V9.12C85.0184 8.56 84.7518 8.28 84.2184 8.28C83.6984 8.28 83.4384 8.59333 83.4384 9.22V9.88L83.4984 10.82C83.3251 10.86 83.1451 10.88 82.9584 10.88C82.7851 10.88 82.6184 10.8533 82.4584 10.8C82.1384 10.72 81.9784 10.5667 81.9784 10.34V8.7C81.9784 8.16667 82.1851 7.75333 82.5984 7.46C83.0251 7.15333 83.5851 7 84.2784 7ZM89.6964 15.36C89.6964 16.0133 89.7431 16.56 89.8364 17C89.4364 17.0533 89.0031 17.08 88.5364 17.08C88.3097 17.08 88.1964 16.98 88.1964 16.78V8.86C88.1964 8.58 88.1431 8.38 88.0364 8.26C87.9431 8.14 87.7564 8.08 87.4764 8.08C87.4631 7.73333 87.5497 7.46667 87.7364 7.28C87.9364 7.09333 88.2497 7 88.6764 7C89.1031 7 89.4097 7.20667 89.5964 7.62C90.0364 7.20667 90.5097 7 91.0164 7C91.5364 7 91.9497 7.16667 92.2564 7.5C92.5764 7.83333 92.7364 8.30667 92.7364 8.92V15.34C92.7364 15.62 92.7831 15.82 92.8764 15.94C92.9831 16.06 93.1764 16.12 93.4564 16.12C93.4697 16.4667 93.3764 16.7333 93.1764 16.92C92.9897 17.1067 92.7097 17.2 92.3364 17.2C91.9631 17.2 91.6831 17.0867 91.4964 16.86C91.3231 16.6333 91.2364 16.26 91.2364 15.74V9.04C91.2364 8.6 91.0097 8.38 90.5564 8.38C90.1831 8.38 89.8964 8.58667 89.6964 9V15.36ZM94.1869 15.16V9.12C94.1869 8.45333 94.3935 7.93333 94.8069 7.56C95.2202 7.18667 95.7802 7 96.4869 7C97.1935 7 97.7402 7.17333 98.1269 7.52C98.5269 7.86667 98.7269 8.37333 98.7269 9.04V15.08C98.7269 15.7467 98.5135 16.2667 98.0869 16.64C97.6735 17.0133 97.1135 17.2 96.4069 17.2C95.7002 17.2 95.1535 17.0267 94.7669 16.68C94.3802 16.3333 94.1869 15.8267 94.1869 15.16ZM95.6869 9.04V15.16C95.6869 15.3867 95.7602 15.58 95.9069 15.74C96.0535 15.8867 96.2335 15.96 96.4469 15.96C96.6735 15.96 96.8602 15.8867 97.0069 15.74C97.1535 15.58 97.2269 15.3867 97.2269 15.16V9.04C97.2269 8.81333 97.1535 8.62667 97.0069 8.48C96.8602 8.32 96.6735 8.24 96.4469 8.24C96.2335 8.24 96.0535 8.32 95.9069 8.48C95.7602 8.62667 95.6869 8.81333 95.6869 9.04Z" fill="#FFD700"/>
<defs>
<clipPath id="clip0_9_18">
<rect width="58" height="58" fill="white" transform="translate(0 1)"/>
</clipPath>
</defs>
</svg>
