<svg width="50" height="50" viewBox="0 0 50 50" fill="none" xmlns="http://www.w3.org/2000/svg">
<path d="M25.0001 31.1091C27.1409 31.1091 28.8764 29.3736 28.8764 27.2328C28.8764 25.092 27.1409 23.3565 25.0001 23.3565C22.8593 23.3565 21.1238 25.092 21.1238 27.2328C21.1238 29.3736 22.8593 31.1091 25.0001 31.1091Z" fill="#FEE187"/>
<path d="M33.6303 40.6686V46.934C30.9572 47.988 28.046 48.5659 25.0001 48.5659C21.9542 48.5659 19.043 47.988 16.3699 46.9354V40.6685H33.6303V40.6686Z" fill="#FEE187"/>
<path d="M25.0001 0C11.215 0 9.15527e-05 11.2149 9.15527e-05 25C9.15527e-05 30.1194 1.53671 35.041 4.44384 39.2325C7.28329 43.3265 11.2257 46.4515 15.8445 48.2698C16.5734 48.5567 17.3127 48.8085 18.0608 49.0246C18.2478 49.0787 18.4354 49.1305 18.6235 49.1799C20.1287 49.5763 21.6683 49.83 23.2317 49.9388C23.818 49.9797 24.4077 50 25.0001 50C28.1612 50 31.2417 49.4174 34.1547 48.2687C35.6488 47.6815 37.0925 46.9451 38.4455 46.0799C39.1126 45.6532 39.3078 44.7664 38.881 44.0991C38.4543 43.432 37.5676 43.2367 36.9002 43.6636C36.3065 44.0432 35.6932 44.3946 35.0641 44.716V40.6686C35.0641 39.8766 34.422 39.2345 33.6301 39.2345H33.3179C33.2605 38.8928 33.2312 38.5464 33.2312 38.198C33.2312 35.1038 35.5366 32.437 38.594 31.9948C39.0871 31.9235 39.508 31.6013 39.7055 31.1437C39.9029 30.6863 39.8486 30.159 39.5622 29.7513L26.1735 10.6937C25.9051 10.3116 25.4671 10.0841 25 10.0841C24.5329 10.0841 24.0951 10.3115 23.8265 10.6937L10.4378 29.7512C10.1513 30.1589 10.0971 30.6861 10.2945 31.1437C10.492 31.6013 10.9128 31.9235 11.4059 31.9947C14.4633 32.4368 16.7686 35.1036 16.7686 38.1979C16.7686 38.5463 16.7393 38.8926 16.682 39.2344H16.3698C15.5778 39.2344 14.9357 39.8764 14.9357 40.6685V44.7159C7.54091 40.9591 2.86816 33.4366 2.86816 25C2.86816 12.7964 12.7965 2.86816 25 2.86816C37.2035 2.86816 47.1319 12.7964 47.1319 25C47.1319 26.824 46.9099 28.6369 46.472 30.3885C46.2798 31.1568 46.7471 31.9354 47.5152 32.1274C48.2835 32.3196 49.0621 31.8525 49.2543 31.084C49.749 29.1053 49.9999 27.0583 49.9999 25C50.0001 11.2149 38.7851 0 25.0001 0ZM17.8039 42.1026H32.1962V45.9345C32.1848 45.9385 32.1732 45.9427 32.1618 45.9467C32.1076 45.9651 32.0531 45.9828 31.9987 46.0009C31.898 46.0345 31.7973 46.0679 31.6963 46.1C31.6344 46.1196 31.5721 46.1386 31.5099 46.1576C31.4156 46.1867 31.3211 46.2154 31.2263 46.2433C31.1617 46.2622 31.0971 46.2806 31.0324 46.2989C30.9391 46.3253 30.8457 46.3512 30.752 46.3764C30.6868 46.3938 30.6216 46.4112 30.5561 46.4283C30.4612 46.4528 30.3661 46.4767 30.2708 46.4999C30.2072 46.5154 30.1437 46.5312 30.0801 46.5462C29.979 46.57 29.8776 46.5925 29.7761 46.6148C29.7183 46.6276 29.6604 46.6408 29.6025 46.6531C29.4798 46.6791 29.3566 46.7036 29.2334 46.7274C29.1967 46.7346 29.1601 46.7424 29.1234 46.7492C28.9634 46.7793 28.803 46.8077 28.6423 46.8343C28.5998 46.8413 28.5572 46.8474 28.5147 46.8541C28.396 46.873 28.2771 46.8915 28.1579 46.9086C28.0981 46.9171 28.0382 46.9246 27.9783 46.9327C27.8761 46.9465 27.7736 46.96 27.6713 46.9723C27.6058 46.9802 27.5403 46.9873 27.4748 46.9945C27.3767 47.0055 27.2785 47.0159 27.1803 47.0255C27.1133 47.0321 27.0463 47.0381 26.9794 47.0441C26.8813 47.0527 26.7832 47.0607 26.6849 47.0681C26.6183 47.073 26.5516 47.0779 26.4849 47.0824C26.3842 47.0891 26.283 47.0947 26.1819 47.0999C26.1182 47.1032 26.0545 47.1069 25.9905 47.1097C25.8795 47.1146 25.7683 47.118 25.6572 47.1213C25.6034 47.1229 25.55 47.125 25.4962 47.1262C25.3311 47.1298 25.1659 47.1319 25.0003 47.1319C24.8349 47.1319 24.6699 47.1298 24.505 47.1262C24.4508 47.125 24.3967 47.1228 24.3427 47.1212C24.2318 47.1181 24.121 47.1145 24.0102 47.1098C23.9466 47.107 23.8829 47.1033 23.8193 47.1C23.7183 47.0947 23.6171 47.0891 23.5162 47.0825C23.4494 47.078 23.3827 47.0732 23.316 47.0682C23.218 47.0608 23.12 47.0529 23.0222 47.0442C22.9549 47.0384 22.8878 47.0322 22.8207 47.0256C22.7224 47.016 22.6241 47.0055 22.5259 46.9946C22.4607 46.9875 22.3957 46.9803 22.3307 46.9726C22.2274 46.9603 22.1244 46.9466 22.0216 46.9328C21.9622 46.9248 21.9028 46.9173 21.8436 46.9089C21.723 46.8917 21.6027 46.873 21.4825 46.8538C21.4416 46.8474 21.4006 46.8415 21.3599 46.8348C21.1986 46.8081 21.0378 46.7797 20.8773 46.7494C20.843 46.743 20.8085 46.7356 20.7741 46.7289C20.6486 46.7047 20.5233 46.6797 20.3982 46.6533C20.3414 46.6413 20.2848 46.6283 20.2281 46.6159C20.1252 46.5933 20.0224 46.5705 19.9198 46.5464C19.8577 46.5317 19.7958 46.5164 19.7337 46.5014C19.6366 46.4777 19.5396 46.4534 19.443 46.4285C19.379 46.412 19.3152 46.3949 19.2516 46.3779C19.1561 46.3522 19.0609 46.326 18.966 46.2992C18.903 46.2814 18.8399 46.2635 18.7771 46.245C18.6796 46.2165 18.5824 46.1869 18.4853 46.1571C18.426 46.1389 18.3666 46.1208 18.3074 46.102C18.2016 46.0685 18.096 46.0335 17.9905 45.9983C17.9409 45.9817 17.8911 45.9658 17.8417 45.9488C17.8294 45.9445 17.817 45.9399 17.8047 45.9357V42.1029H17.8039V42.1026ZM13.9512 29.7397L25 14.0128L36.0488 29.7397C32.6947 31.1188 30.3632 34.4426 30.3632 38.1979C30.3632 38.5451 30.383 38.891 30.422 39.2341H26.434V32.3453C28.6674 31.7179 30.3102 29.6645 30.3102 27.2333C30.3102 24.3051 27.9281 21.9229 24.9999 21.9229C22.0719 21.9229 19.6895 24.3051 19.6895 27.2333C19.6895 29.6645 21.3324 31.7179 23.5658 32.3453V39.2341H19.5778C19.617 38.8909 19.6366 38.5451 19.6366 38.1979C19.637 34.4426 17.3054 31.119 13.9512 29.7397ZM25.0001 29.6756C23.6534 29.6756 22.5579 28.58 22.5579 27.2334C22.5579 25.8868 23.6535 24.791 25.0001 24.791C26.3467 24.791 27.4423 25.8866 27.4423 27.2334C27.4423 28.5802 26.3468 29.6756 25.0001 29.6756Z" fill="#000080"/>
</svg>
